<svg width="228" height="74" viewBox="0 0 228 74" fill="none" xmlns="http://www.w3.org/2000/svg">
<path d="M28.2294 28.0498L4.23535 44.7893C8.73735 53.271 16.8459 61.7278 28.2211 73.5839C38.2449 62.2045 46.7846 53.3746 51.7426 44.5199L28.2294 28.0498ZM27.2843 53.2337C27.2832 53.3818 27.2239 53.5235 27.1191 53.6282C27.0144 53.7329 26.8727 53.7922 26.7246 53.7933H22.2226C22.0742 53.7933 21.9318 53.7343 21.8269 53.6294C21.7219 53.5244 21.663 53.3821 21.663 53.2337V48.7317C21.6624 48.658 21.6765 48.585 21.7045 48.5168C21.7324 48.4487 21.7736 48.3868 21.8257 48.3347C21.8777 48.2826 21.9396 48.2414 22.0078 48.2135C22.0759 48.1856 22.149 48.1715 22.2226 48.172H26.7246C26.873 48.172 27.0154 48.231 27.1203 48.3359C27.2253 48.4409 27.2843 48.5832 27.2843 48.7317V53.2337ZM27.2843 45.7345C27.2832 45.8826 27.2239 46.0243 27.1191 46.129C27.0144 46.2337 26.8727 46.293 26.7246 46.2941H22.2226C22.1491 46.2941 22.0763 46.2796 22.0084 46.2515C21.9405 46.2234 21.8789 46.1822 21.8269 46.1302C21.7749 46.0782 21.7337 46.0165 21.7056 45.9486C21.6774 45.8807 21.663 45.808 21.663 45.7345V41.2491C21.6624 41.1754 21.6765 41.1024 21.7045 41.0342C21.7324 40.9661 21.7736 40.9042 21.8257 40.8521C21.8777 40.8 21.9396 40.7588 22.0078 40.7309C22.0759 40.703 22.149 40.6889 22.2226 40.6894H26.7246C26.7981 40.6894 26.8709 40.7039 26.9388 40.732C27.0067 40.7602 27.0684 40.8014 27.1203 40.8533C27.1723 40.9053 27.2135 40.967 27.2416 41.0349C27.2698 41.1028 27.2843 41.1756 27.2843 41.2491V45.7345ZM34.7834 53.2337C34.7823 53.3825 34.7225 53.5248 34.6168 53.6296C34.5112 53.7345 34.3685 53.7933 34.2196 53.7933H29.7218C29.573 53.7933 29.4302 53.7345 29.3246 53.6296C29.219 53.5248 29.1591 53.3825 29.158 53.2337V48.7317C29.158 48.6578 29.1726 48.5847 29.201 48.5165C29.2294 48.4484 29.271 48.3865 29.3234 48.3345C29.3758 48.2824 29.438 48.2413 29.5064 48.2134C29.5747 48.1855 29.648 48.1715 29.7218 48.172H34.2196C34.2935 48.1715 34.3667 48.1855 34.4351 48.2134C34.5035 48.2413 34.5657 48.2824 34.6181 48.3345C34.6705 48.3865 34.7121 48.4484 34.7404 48.5165C34.7688 48.5847 34.7834 48.6578 34.7834 48.7317V53.2337ZM34.2196 46.2941H29.7218C29.573 46.2941 29.4302 46.2353 29.3246 46.1305C29.219 46.0256 29.1591 45.8833 29.158 45.7345V41.2491C29.158 41.1752 29.1726 41.1021 29.201 41.0339C29.2294 40.9658 29.271 40.9039 29.3234 40.8519C29.3758 40.7998 29.438 40.7587 29.5064 40.7308C29.5747 40.7029 29.648 40.6889 29.7218 40.6894H34.2196C34.2935 40.6889 34.3667 40.7029 34.4351 40.7308C34.5035 40.7587 34.5657 40.7998 34.6181 40.8519C34.6705 40.9039 34.7121 40.9658 34.7404 41.0339C34.7688 41.1021 34.7834 41.1752 34.7834 41.2491V45.7511C34.7781 45.897 34.7163 46.0351 34.6112 46.1364C34.506 46.2377 34.3657 46.2942 34.2196 46.2941Z" fill="white"/>
<path d="M54.1839 39.4499L44.7364 32.8171V23.6141C44.7364 23.5401 44.7218 23.4668 44.6935 23.3984C44.6651 23.33 44.6236 23.2678 44.5713 23.2155C44.5189 23.1631 44.4568 23.1216 44.3884 23.0933C44.32 23.0649 44.2466 23.0503 44.1726 23.0503H39.6582C39.5841 23.0503 39.5108 23.0649 39.4424 23.0933C39.374 23.1216 39.3119 23.1631 39.2595 23.2155C39.2072 23.2678 39.1656 23.33 39.1373 23.3984C39.109 23.4668 39.0944 23.5401 39.0944 23.6141V28.8582L28.2208 21.2678L1.8845 39.6406C-5.99192 16.9565 12.3767 -0.777918 28.2208 0.0263064C45.6525 0.0263064 63.275 16.9565 54.1839 39.4499Z" fill="white"/>
<path d="M98.6028 28.9577H92.7701C92.6808 28.2527 92.46 27.5707 92.1193 26.9471C91.8057 26.3664 91.3835 25.8513 90.8756 25.4298C90.3427 25.0055 89.7374 24.681 89.0889 24.4722C88.3891 24.2443 87.6568 24.1323 86.9208 24.1406C85.6133 24.1098 84.3271 24.4755 83.2313 25.1894C82.1388 25.9418 81.2912 26.9983 80.7938 28.228C80.1791 29.7576 79.8857 31.3973 79.9315 33.0451C79.8766 34.7146 80.1629 36.3777 80.7731 37.9326C81.2763 39.1514 82.1287 40.1942 83.223 40.9298C84.3096 41.6159 85.5738 41.9676 86.8586 41.9413C87.5844 41.9474 88.3069 41.844 89.0019 41.6346C89.6402 41.445 90.2396 41.1432 90.772 40.7433C91.2873 40.3455 91.7221 39.853 92.0529 39.2924C92.4094 38.6938 92.6525 38.0347 92.7701 37.3481L98.6028 37.373C98.4494 38.6396 98.0659 39.8675 97.4711 40.9962C96.865 42.1722 96.0487 43.2274 95.0626 44.1094C94.0082 45.0472 92.7878 45.7797 91.4643 46.2692C89.9603 46.8119 88.3703 47.0774 86.7716 47.0527C84.488 47.0882 82.2361 46.516 80.2466 45.3945C78.3132 44.2649 76.7427 42.6066 75.7197 40.6148C74.6143 38.5282 74.0615 36.0022 74.0615 33.0368C74.0615 30.0714 74.6143 27.5427 75.7197 25.4506C76.7503 23.4565 78.3334 21.8014 80.2798 20.6833C82.2509 19.5647 84.4847 18.9923 86.7509 19.0251C88.2416 19.0109 89.725 19.2348 91.1451 19.6884C92.4566 20.109 93.6793 20.7681 94.7516 21.6326C95.8041 22.4836 96.6741 23.5383 97.3094 24.7334C98.0064 26.0459 98.4455 27.4799 98.6028 28.9577ZM127.812 33.0451C127.812 36.0216 127.248 38.5517 126.121 40.6355C125.085 42.6359 123.494 44.2953 121.54 45.4152C119.539 46.4939 117.302 47.0587 115.029 47.0587C112.756 47.0587 110.519 46.4939 108.519 45.4152C106.574 44.29 104.991 42.6314 103.959 40.6355C102.853 38.5489 102.301 36.0229 102.301 33.0575C102.301 30.0921 102.853 27.5634 103.959 25.4713C104.988 23.4764 106.572 21.8211 108.519 20.704C110.518 19.622 112.756 19.0555 115.029 19.0555C117.303 19.0555 119.54 19.622 121.54 20.704C123.496 21.8168 125.087 23.4727 126.121 25.4713C127.248 27.5496 127.812 30.0742 127.812 33.0451ZM121.967 33.0451C122.014 31.3793 121.719 29.7215 121.1 28.1742C120.613 26.9546 119.775 25.9072 118.692 25.1645C117.593 24.4948 116.331 24.1405 115.044 24.1405C113.757 24.1405 112.495 24.4948 111.396 25.1645C110.308 25.9062 109.464 26.9535 108.971 28.1742C107.838 31.3241 107.838 34.7703 108.971 37.9202C109.464 39.1409 110.308 40.1881 111.396 40.9298C112.495 41.5996 113.757 41.9538 115.044 41.9538C116.331 41.9538 117.593 41.5996 118.692 40.9298C119.775 40.1872 120.613 39.1397 121.1 37.9202C121.714 36.3703 122.003 34.7111 121.95 33.0451H121.967ZM132.082 46.6796V19.4147H142.839C144.654 19.3654 146.455 19.7446 148.096 20.5216C149.498 21.1929 150.663 22.2742 151.437 23.6224C152.234 25.0586 152.633 26.6814 152.594 28.3234C152.643 29.9567 152.244 31.5723 151.441 32.9954C150.636 34.3086 149.452 35.3476 148.046 35.976C146.36 36.7116 144.533 37.0669 142.694 37.0165H135.473V32.3818H141.745C142.68 32.4088 143.612 32.2554 144.489 31.93C145.166 31.6702 145.737 31.1916 146.11 30.5703C146.495 29.8843 146.685 29.1056 146.657 28.3193C146.683 27.5212 146.494 26.7308 146.11 26.0309C145.738 25.39 145.161 24.8923 144.473 24.6173C143.598 24.2628 142.659 24.0961 141.716 24.1282H137.832V46.6796H132.082ZM146.807 34.2722L153.584 46.6796H147.204L140.572 34.2722H146.807ZM155.649 24.1655V19.4147H178.034V24.1655H169.681V46.6796H163.981V24.1655H155.649ZM181.703 46.6796V19.4147H200.076V24.1655H187.478V30.6656H199.143V35.4163H187.478V41.9289H200.142V46.6796H181.703ZM210.067 19.4147L215.564 28.7048H215.775L221.301 19.4147H227.813L219.489 33.0451L228 46.6796H221.367L215.775 37.373H215.564L209.984 46.6796H203.38L211.916 33.0451L203.542 19.4147H210.067Z" fill="white"/>
<path d="M78.555 63.5435C77.7556 63.5647 76.9602 63.4237 76.2169 63.1289C75.5959 62.8744 75.0587 62.4507 74.6665 61.906C74.2831 61.35 74.0686 60.6949 74.0488 60.0198H75.8936C75.9131 60.4141 76.0584 60.7918 76.3081 61.0976C76.5652 61.3914 76.8956 61.6117 77.2657 61.736C77.6751 61.8769 78.1055 61.947 78.5384 61.9433C79.0012 61.9518 79.4613 61.8716 79.894 61.707C80.2607 61.5688 80.584 61.3356 80.8308 61.0313C81.0613 60.7419 81.1844 60.3815 81.1791 60.0115C81.1902 59.6975 81.0821 59.3909 80.8764 59.1534C80.6442 58.9096 80.3612 58.7199 80.0473 58.5979C79.6696 58.4374 79.2801 58.3058 78.8825 58.2041L77.4813 57.8186C76.6295 57.6251 75.839 57.2235 75.1806 56.6495C74.9071 56.3946 74.6916 56.0839 74.5485 55.7384C74.4055 55.393 74.3383 55.0209 74.3515 54.6473C74.3376 53.9963 74.5339 53.3581 74.9111 52.8274C75.3004 52.2957 75.826 51.8789 76.4325 51.621C77.1193 51.3314 77.8595 51.1901 78.6047 51.2065C79.3502 51.1868 80.0911 51.3282 80.777 51.621C81.3642 51.8764 81.8723 52.2844 82.2486 52.8025C82.6057 53.301 82.8011 53.8972 82.8082 54.5104H81.0506C81.031 54.2537 80.9518 54.005 80.8195 53.7841C80.6871 53.5631 80.505 53.3761 80.2878 53.2378C79.7813 52.9193 79.1901 52.7617 78.5923 52.7859C78.1671 52.7787 77.7446 52.8547 77.3486 53.0098C77.0201 53.1384 76.7333 53.355 76.5195 53.6358C76.3256 53.8969 76.2222 54.2142 76.2252 54.5395C76.2176 54.7095 76.2449 54.8792 76.3055 55.0382C76.3661 55.1972 76.4587 55.3421 76.5776 55.4639C76.8221 55.7045 77.1125 55.8934 77.4315 56.0194C77.7451 56.1482 78.0663 56.2576 78.3933 56.3469L79.5623 56.6495C79.9629 56.7552 80.3561 56.8867 80.7396 57.0433C81.1412 57.2027 81.5191 57.4161 81.8631 57.6776C82.204 57.938 82.4865 58.267 82.6922 58.6435C82.9168 59.0725 83.0267 59.5523 83.0114 60.0364C83.0213 60.6788 82.8395 61.3095 82.489 61.848C82.1124 62.3989 81.5859 62.8304 80.9718 63.0916C80.208 63.414 79.3837 63.5681 78.555 63.5435Z" fill="white"/>
<path d="M84.5 52.9185V51.3391H93.8191V52.9185H90.0881V63.3403H88.2434V52.9185H84.5Z" fill="white"/>
<path d="M93.5537 63.3403L97.8194 51.3184H100.079L104.427 63.3403H102.437L100.099 56.6619C99.917 56.1092 99.7181 55.4708 99.5025 54.7467C99.2828 54.0088 99.0341 53.1259 98.748 52.0978H99.117C98.8406 53.1369 98.596 54.0296 98.3832 54.7758C98.1635 55.5178 97.9687 56.1479 97.807 56.6619L95.5436 63.3403H93.5537ZM95.8627 60.1732V58.6601H102.11V60.1898L95.8627 60.1732Z" fill="white"/>
<path d="M108.46 63.3403L104.12 51.3184H106.102L108.436 57.9968C108.61 58.5108 108.809 59.1409 109.028 59.8871C109.248 60.6333 109.505 61.5163 109.791 62.532H109.414C109.69 61.4956 109.938 60.6085 110.156 59.8706C110.376 59.1368 110.57 58.5108 110.732 57.9968L113.004 51.3184H114.994L110.707 63.3403H108.46Z" fill="white"/>
</svg>
