<?xml version="1.0" encoding="UTF-8"?>
<svg id="Layer_1" xmlns="http://www.w3.org/2000/svg" version="1.1" viewBox="0 0 637.94 337.06">
  <!-- Generator: Adobe Illustrator 29.1.0, SVG Export Plug-In . SVG Version: 2.1.0 Build 142)  -->
  <defs>
    <style>
      .st0 {
        fill: #231f20;
      }
    </style>
  </defs>
  <path class="st0" d="M.5,316.56v-149.15c0-11.05,8.95-20,20-20h62.05c11.05,0,20-8.95,20-20v-5.75c0-11.05,8.95-20,20-20h108.68c11.05,0,20-8.95,20-20V20.5c0-11.05,8.95-20,20-20h346.21c11.05,0,20,8.95,20,20v223.92c0,11.05-8.95,20-20,20h-154.42c-11.05,0-20,8.95-20,20v32.14c0,11.05-8.95,20-20,20H20.5c-11.05,0-20-8.95-20-20Z"/>
</svg>